<?xml version="1.0" encoding="UTF-8"?>
<svg id="Layer_2" data-name="Layer 2" xmlns="http://www.w3.org/2000/svg" viewBox="0 0 335.09 318.9">
  <defs>
    <style>
      .cls-1 {
        fill: #ff864f;
      }
    </style>
  </defs>
  <g id="Layer_1-2" data-name="Layer 1">
    <path class="cls-1" d="M195.45,24.65c38.73,5.6,80.27,12.53,108.14,39.7,31.28,30.49,36.74,79.4,27.35,121.82-9.49,42.88-33.18,83.61-69.66,108.61-36.49,25.01-86.28,32.29-126.46,13.61-31.78-14.78-55.31-44.53-65.31-77.81-5.28-17.57-7.32-36.68-17.83-51.78-8.97-12.89-23.11-21.31-33.48-33.13C-4.29,120.05-5.45,79.8,12.02,50.61,29.48,21.42,62.94,3.45,97.1.31s60.93,18.51,98.35,24.34"/>
  </g>
</svg>