<?xml version="1.0" encoding="UTF-8"?>
<svg id="Layer_2" data-name="Layer 2" xmlns="http://www.w3.org/2000/svg" viewBox="0 0 239.2 154.25">
  <defs>
    <style>
      .cls-1 {
        fill: #115fd5;
      }
    </style>
  </defs>
  <g id="Layer_1-2" data-name="Layer 1">
    <path class="cls-1" d="M105.63,0c17.63,0,32.5,11.84,37.1,28,.67-.03,1.35-.05,2.03-.05,16.36,0,30.33,10.18,35.94,24.56,5.82-3.53,12.65-5.55,19.95-5.55,21.3,0,38.56,17.27,38.56,38.56s-17.26,38.56-38.56,38.56c-2.75,0-5.42-.29-8.01-.83-3.51,17.68-19.11,31.01-37.82,31.01-12.55,0-23.7-6-30.74-15.28-5.21,2.62-11.09,4.1-17.32,4.1-14.78,0-27.62-8.32-34.09-20.53-6.47,12.21-19.31,20.53-34.09,20.53C17.27,143.07,0,125.81,0,104.51c0-18.58,13.14-34.09,30.63-37.75,4.66-15.81,19.18-27.39,36.44-27.64,0-.19,0-.38,0-.57C67.07,17.27,84.33,0,105.63,0Z"/>
  </g>
</svg>