<?xml version="1.0" encoding="UTF-8"?>
<svg id="Layer_2" data-name="Layer 2" xmlns="http://www.w3.org/2000/svg" viewBox="0 0 139.37 118.3">
  <defs>
    <style>
      .cls-1 {
        fill: #115fd5;
      }
    </style>
  </defs>
  <g id="Layer_1-2" data-name="Layer 1">
    <path class="cls-1" d="M109.61,41.59c.09-1.05.14-2.11.14-3.18C109.76,17.2,92.56,0,71.34,0c-14.95,0-27.89,8.54-34.24,21.01-1.49-.21-3.01-.32-4.56-.32C14.57,20.69,0,35.25,0,53.22s14.57,32.54,32.54,32.54c0,17.97,14.57,32.54,32.54,32.54,11.54,0,21.67-6.01,27.45-15.07,4.32,2.12,9.17,3.31,14.31,3.31,17.97,0,32.54-14.57,32.54-32.54,0-17.03-13.09-31-29.76-32.41Z"/>
  </g>
</svg>