<?xml version="1.0" encoding="UTF-8"?>
<svg id="Layer_2" data-name="Layer 2" xmlns="http://www.w3.org/2000/svg" viewBox="0 0 447.22 242.6">
  <defs>
    <style>
      .cls-1 {
        fill: #115fd5;
      }
    </style>
  </defs>
  <g id="Layer_1-2" data-name="Layer 1">
    <path class="cls-1" d="M387.81,44.23c-14.93,0-28.56,5.52-39,14.61-13.85-9.23-30.48-14.61-48.36-14.61-10.9,0-21.32,2.01-30.94,5.66C255.48,20.39,225.41,0,190.57,0c-48.18,0-87.25,39.01-87.36,87.16-10.86-11.85-26.46-19.29-43.81-19.29C26.6,67.88,0,94.47,0,127.29s26.6,59.41,59.41,59.41c9.32,0,18.13-2.15,25.97-5.97,10.91,35.81,44.19,61.87,83.57,61.87,32.37,0,60.61-17.62,75.7-43.78,15.13,12.57,34.57,20.14,55.79,20.14,37.26,0,69.05-23.34,81.61-56.18,1.89.18,3.81.28,5.75.28,32.81,0,59.41-26.6,59.41-59.41s-26.6-59.41-59.41-59.41Z"/>
  </g>
</svg>