<?xml version="1.0" encoding="UTF-8"?>
<svg id="Layer_2" data-name="Layer 2" xmlns="http://www.w3.org/2000/svg" viewBox="0 0 257.7 116.53">
  <defs>
    <style>
      .cls-1 {
        fill: #9b8155;
      }
    </style>
  </defs>
  <g id="Layer_1-2" data-name="Layer 1">
    <g>
      <path class="cls-1" d="M0,77.39c0,21.62,17.52,39.14,39.14,39.14s39.14-17.52,39.14-39.14S39.14,0,39.14,0C39.14,0,0,55.78,0,77.39Z"/>
      <path class="cls-1" d="M89.71,77.39c0,21.62,17.52,39.14,39.14,39.14s39.14-17.52,39.14-39.14S128.85,0,128.85,0c0,0-39.14,55.78-39.14,77.39Z"/>
      <path class="cls-1" d="M218.56,0s-39.14,55.78-39.14,77.39,17.52,39.14,39.14,39.14,39.14-17.52,39.14-39.14S218.56,0,218.56,0Z"/>
    </g>
  </g>
</svg>