<?xml version="1.0" encoding="UTF-8"?>
<svg id="Layer_2" data-name="Layer 2" xmlns="http://www.w3.org/2000/svg" viewBox="0 0 891 70">
  <defs>
    <style>
      .cls-1 {
        fill: #cbff82;
      }
    </style>
  </defs>
  <g id="Layer_1-2" data-name="Layer 1">
    <path class="cls-1" d="M891,70c-22.48,0-35.23-8.58-43.67-14.26-6.2-4.17-8.52-5.74-15.74-5.74s-9.54,1.56-15.74,5.74c-8.43,5.68-21.18,14.26-43.67,14.26s-35.23-8.58-43.67-14.26c-6.2-4.18-8.52-5.74-15.74-5.74s-9.54,1.56-15.74,5.74c-8.43,5.68-21.18,14.26-43.66,14.26s-35.23-8.58-43.66-14.26c-6.2-4.17-8.52-5.74-15.73-5.74s-9.54,1.56-15.74,5.74c-8.43,5.68-21.18,14.26-43.66,14.26s-35.23-8.58-43.66-14.26c-6.2-4.18-8.52-5.74-15.74-5.74s-9.54,1.56-15.74,5.74c-8.43,5.68-21.18,14.26-43.66,14.26s-35.23-8.58-43.66-14.26c-6.2-4.17-8.52-5.74-15.74-5.74s-9.54,1.56-15.74,5.74c-8.43,5.68-21.18,14.26-43.66,14.26s-35.23-8.58-43.66-14.26c-6.2-4.17-8.52-5.74-15.73-5.74s-9.54,1.56-15.73,5.74c-8.43,5.68-21.18,14.26-43.66,14.26s-35.23-8.58-43.66-14.26c-6.2-4.17-8.52-5.74-15.73-5.74s-9.54,1.56-15.73,5.74c-8.43,5.68-21.18,14.26-43.66,14.26s-35.23-8.58-43.66-14.26c-6.2-4.17-8.52-5.74-15.73-5.74V0c22.48,0,35.23,8.58,43.66,14.26,6.2,4.17,8.52,5.74,15.73,5.74s9.54-1.56,15.73-5.74C83.56,8.58,96.31,0,118.79,0s35.23,8.58,43.66,14.26c6.2,4.17,8.52,5.74,15.73,5.74s9.53-1.56,15.73-5.74c8.43-5.68,21.18-14.26,43.66-14.26s35.23,8.58,43.66,14.26c6.2,4.17,8.52,5.74,15.73,5.74s9.54-1.56,15.74-5.74c8.43-5.68,21.18-14.26,43.66-14.26s35.23,8.58,43.66,14.26c6.2,4.17,8.52,5.74,15.74,5.74s9.54-1.56,15.74-5.74c8.43-5.68,21.18-14.26,43.66-14.26s35.23,8.58,43.67,14.26c6.2,4.17,8.52,5.74,15.74,5.74s9.54-1.56,15.74-5.74c8.43-5.68,21.18-14.26,43.66-14.26s35.23,8.58,43.66,14.26c6.2,4.17,8.52,5.74,15.74,5.74s9.54-1.56,15.74-5.74c8.43-5.68,21.18-14.26,43.67-14.26s35.23,8.58,43.66,14.26c6.2,4.17,8.52,5.74,15.74,5.74s9.54-1.56,15.74-5.74c8.43-5.68,21.18-14.26,43.67-14.26s35.23,8.58,43.67,14.26c6.2,4.17,8.52,5.74,15.74,5.74v50Z"/>
  </g>
</svg>